<svg width="30" height="30" viewBox="0 0 30 30" fill="none" xmlns="http://www.w3.org/2000/svg">
<path d="M15.0586 27.0387C8.37889 27.0387 2.9455 21.6047 2.9455 14.9256C2.9455 8.24648 8.37889 2.8125 15.0586 2.8125C21.7383 2.8125 27.1717 8.24648 27.1717 14.9256C27.1717 21.6047 21.7383 27.0387 15.0586 27.0387ZM15.0586 4.57031C9.34862 4.57031 4.70331 9.21563 4.70331 14.9256C4.70331 20.6355 9.34862 25.2809 15.0586 25.2809C20.7685 25.2809 25.4139 20.6355 25.4139 14.9256C25.4139 9.21563 20.7685 4.57031 15.0586 4.57031Z" fill="black"/>
<path d="M20.093 20.9766C19.9775 20.9766 19.8632 20.9539 19.7565 20.9098C19.6499 20.8657 19.5529 20.8009 19.4713 20.7193L9.40254 10.65C9.31859 10.5689 9.25163 10.472 9.20557 10.3647C9.15951 10.2575 9.13526 10.1422 9.13425 10.0255C9.13324 9.90876 9.15547 9.79303 9.19966 9.68501C9.24386 9.577 9.30912 9.47886 9.39164 9.39634C9.47416 9.31382 9.5723 9.24856 9.68031 9.20437C9.78832 9.16017 9.90406 9.13794 10.0208 9.13895C10.1375 9.13996 10.2528 9.16421 10.36 9.21027C10.4672 9.25633 10.5642 9.32329 10.6453 9.40724L20.7146 19.4766C20.8374 19.5995 20.921 19.7561 20.9549 19.9266C20.9887 20.097 20.9712 20.2736 20.9047 20.4342C20.8382 20.5947 20.7256 20.7319 20.5811 20.8284C20.4366 20.925 20.2667 20.9765 20.093 20.9766Z" fill="black"/>
<path d="M10.0236 20.9766C9.84992 20.9764 9.68014 20.9248 9.53575 20.8282C9.39136 20.7316 9.27883 20.5944 9.21237 20.4339C9.14591 20.2734 9.12851 20.0968 9.16235 19.9264C9.1962 19.756 9.27979 19.5995 9.40255 19.4766L19.4713 9.40725C19.6361 9.24237 19.8597 9.14971 20.0928 9.14966C20.3259 9.1496 20.5495 9.24216 20.7144 9.40696C20.8792 9.57176 20.9719 9.79531 20.972 10.0284C20.972 10.2616 20.8795 10.4851 20.7147 10.65L10.6453 20.7194C10.5637 20.801 10.4667 20.8657 10.3601 20.9098C10.2534 20.9539 10.1391 20.9766 10.0236 20.9766Z" fill="black"/>
</svg>
