<svg width="16" height="16" viewBox="0 0 16 16" fill="none" xmlns="http://www.w3.org/2000/svg">
<mask id="mask0_2766_191" style="mask-type:alpha" maskUnits="userSpaceOnUse" x="0" y="0" width="16" height="16">
<rect width="16" height="16" fill="#D9D9D9"/>
</mask>
<g mask="url(#mask0_2766_191)">
<path d="M7.06666 11.0666L11.7667 6.36659L10.8333 5.43325L7.06666 9.19992L5.16666 7.29992L4.23333 8.23325L7.06666 11.0666ZM7.99999 14.6666C7.07777 14.6666 6.21111 14.4916 5.39999 14.1416C4.58888 13.7916 3.88333 13.3166 3.28333 12.7166C2.68333 12.1166 2.20833 11.411 1.85833 10.5999C1.50833 9.78881 1.33333 8.92214 1.33333 7.99992C1.33333 7.0777 1.50833 6.21103 1.85833 5.39992C2.20833 4.58881 2.68333 3.88325 3.28333 3.28325C3.88333 2.68325 4.58888 2.20825 5.39999 1.85825C6.21111 1.50825 7.07777 1.33325 7.99999 1.33325C8.92222 1.33325 9.78888 1.50825 10.6 1.85825C11.4111 2.20825 12.1167 2.68325 12.7167 3.28325C13.3167 3.88325 13.7917 4.58881 14.1417 5.39992C14.4917 6.21103 14.6667 7.0777 14.6667 7.99992C14.6667 8.92214 14.4917 9.78881 14.1417 10.5999C13.7917 11.411 13.3167 12.1166 12.7167 12.7166C12.1167 13.3166 11.4111 13.7916 10.6 14.1416C9.78888 14.4916 8.92222 14.6666 7.99999 14.6666ZM7.99999 13.3333C9.48888 13.3333 10.75 12.8166 11.7833 11.7833C12.8167 10.7499 13.3333 9.48881 13.3333 7.99992C13.3333 6.51103 12.8167 5.24992 11.7833 4.21659C10.75 3.18325 9.48888 2.66659 7.99999 2.66659C6.51111 2.66659 5.24999 3.18325 4.21666 4.21659C3.18333 5.24992 2.66666 6.51103 2.66666 7.99992C2.66666 9.48881 3.18333 10.7499 4.21666 11.7833C5.24999 12.8166 6.51111 13.3333 7.99999 13.3333Z" fill="#BC1218"/>
</g>
</svg>
