<svg width="20" height="20" viewBox="0 0 20 20" fill="none" xmlns="http://www.w3.org/2000/svg">
<mask id="mask0_2653_195" style="mask-type:alpha" maskUnits="userSpaceOnUse" x="0" y="0" width="20" height="20">
<rect width="20" height="20" fill="#D9D9D9"/>
</mask>
<g mask="url(#mask0_2653_195)">
<path d="M8.83335 13.8333L14.7084 7.95832L13.5417 6.79166L8.83335 11.5L6.45835 9.12499L5.29169 10.2917L8.83335 13.8333ZM10 18.3333C8.84724 18.3333 7.76391 18.1146 6.75002 17.6771C5.73613 17.2396 4.85419 16.6458 4.10419 15.8958C3.35419 15.1458 2.76044 14.2639 2.32294 13.25C1.88544 12.2361 1.66669 11.1528 1.66669 9.99999C1.66669 8.84721 1.88544 7.76388 2.32294 6.74999C2.76044 5.7361 3.35419 4.85416 4.10419 4.10416C4.85419 3.35416 5.73613 2.76041 6.75002 2.32291C7.76391 1.88541 8.84724 1.66666 10 1.66666C11.1528 1.66666 12.2361 1.88541 13.25 2.32291C14.2639 2.76041 15.1459 3.35416 15.8959 4.10416C16.6459 4.85416 17.2396 5.7361 17.6771 6.74999C18.1146 7.76388 18.3334 8.84721 18.3334 9.99999C18.3334 11.1528 18.1146 12.2361 17.6771 13.25C17.2396 14.2639 16.6459 15.1458 15.8959 15.8958C15.1459 16.6458 14.2639 17.2396 13.25 17.6771C12.2361 18.1146 11.1528 18.3333 10 18.3333ZM10 16.6667C11.8611 16.6667 13.4375 16.0208 14.7292 14.7292C16.0209 13.4375 16.6667 11.8611 16.6667 9.99999C16.6667 8.13888 16.0209 6.56249 14.7292 5.27082C13.4375 3.97916 11.8611 3.33332 10 3.33332C8.13891 3.33332 6.56252 3.97916 5.27085 5.27082C3.97919 6.56249 3.33335 8.13888 3.33335 9.99999C3.33335 11.8611 3.97919 13.4375 5.27085 14.7292C6.56252 16.0208 8.13891 16.6667 10 16.6667Z" fill="#645D4F"/>
</g>
</svg>
