<svg width="30" height="30" viewBox="0 0 30 30" fill="none" xmlns="http://www.w3.org/2000/svg">
<mask id="mask0_35_120" style="mask-type:alpha" maskUnits="userSpaceOnUse" x="0" y="0" width="30" height="30">
<rect width="30" height="30" fill="#D9D9D9"/>
</mask>
<g mask="url(#mask0_35_120)">
<path d="M13.25 19.7759L22.0625 11.2105L20.3125 9.50956L13.25 16.374L9.6875 12.9114L7.9375 14.6124L13.25 19.7759ZM15 26.3367C13.2708 26.3367 11.6458 26.0177 10.125 25.3799C8.60417 24.742 7.28125 23.8764 6.15625 22.7829C5.03125 21.6895 4.14063 20.4036 3.48438 18.9254C2.82812 17.4473 2.5 15.8678 2.5 14.1871C2.5 12.5064 2.82812 10.927 3.48438 9.44881C4.14063 7.97062 5.03125 6.68479 6.15625 5.59134C7.28125 4.49788 8.60417 3.63222 10.125 2.99437C11.6458 2.35652 13.2708 2.0376 15 2.0376C16.7292 2.0376 18.3542 2.35652 19.875 2.99437C21.3958 3.63222 22.7188 4.49788 23.8438 5.59134C24.9688 6.68479 25.8594 7.97062 26.5156 9.44881C27.1719 10.927 27.5 12.5064 27.5 14.1871C27.5 15.8678 27.1719 17.4473 26.5156 18.9254C25.8594 20.4036 24.9688 21.6895 23.8438 22.7829C22.7188 23.8764 21.3958 24.742 19.875 25.3799C18.3542 26.0177 16.7292 26.3367 15 26.3367ZM15 23.9068C17.7917 23.9068 20.1562 22.9652 22.0938 21.082C24.0312 19.1988 25 16.9005 25 14.1871C25 11.4737 24.0312 9.17545 22.0938 7.29227C20.1562 5.40909 17.7917 4.4675 15 4.4675C12.2083 4.4675 9.84375 5.40909 7.90625 7.29227C5.96875 9.17545 5 11.4737 5 14.1871C5 16.9005 5.96875 19.1988 7.90625 21.082C9.84375 22.9652 12.2083 23.9068 15 23.9068Z" fill="#FDFDF9"/>
</g>
</svg>
